<svg width="2134" height="468" viewBox="0 0 2134 468" fill="none" xmlns="http://www.w3.org/2000/svg">
<g clip-path="url(#clip0_45_380)">
<rect width="2133.33" height="468" fill="white"/>
<path d="M0 234V468H1066.67H2133.33V234V-2.44081e-05H1066.67H0V234ZM679.067 53.6C677.467 56.5333 676.667 60.9333 676.667 67.3333C676.667 77.4666 678.8 82.4 687.6 92.1333C694 99.2 697.733 108.533 696.667 114.533C695.333 121.467 689.467 131.733 684.133 136.133C678.8 140.533 677.067 140.267 681.333 135.733C686 130.8 690.8 120.133 690.933 114.8C690.933 108.8 688 102.667 681.333 94.9333C668.933 80.9333 667.733 68.4 677.067 52.1333C680.933 45.4666 682.8 46.8 679.067 53.6ZM646.533 70.2666C640.133 83.3333 642.133 94.4 653.333 107.333C663.867 119.467 666.267 128.933 661.467 139.333C659.067 144.533 649.6 155.467 648.533 154.267C648.267 154 650 150.267 652.667 146C658.933 135.467 659.733 130.533 656.133 123.2C654.667 119.867 650.933 114.667 648 111.467C640.933 103.867 638.667 97.8666 638.667 87.3333C638.667 78.1333 639.467 75.6 644.933 68.2666C649.2 62.5333 650 63.3333 646.533 70.2666ZM718.8 72.6666C713.867 85.7333 716 95.2 726.533 107.867C739.867 123.867 740 136.133 726.933 149.6C720.933 156 718.667 156.133 723.467 150C733.733 136.4 732.533 120.8 720 110C715.867 106.4 710.667 94.9333 710.667 89.3333C710.667 86.8 711.2 82.6666 712 80.2666C713.467 74.9333 720 63.4666 720.933 64.5333C721.333 64.8 720.4 68.5333 718.8 72.6666ZM1742.4 140.933C1756.8 141.733 1757.47 141.867 1758.13 144.933C1758.67 146.667 1758.53 148.533 1758 149.067C1756.8 150.4 972.8 150.933 932 149.733L899.333 148.667V145.333V142L930 141.333C975.333 140.267 1724.8 139.867 1742.4 140.933ZM918 166C927.067 168.4 941.2 175.6 943.2 178.933C944.133 180.533 944.133 181.733 943.067 182.8C942 183.867 938.667 182.667 930.533 178.4L919.467 172.667H904C889.867 172.667 888 173.067 881.067 176.4C871.6 181.067 859.867 192.667 855.333 201.867C844.933 223.2 849.333 247.2 866.8 264.267C877.467 274.667 885.867 278.533 900.267 279.6C913.867 280.533 923.2 278.133 933.333 271.333C938.8 267.6 940.8 266.933 942.133 268.133C945.333 270.667 944.267 272.533 937.067 277.2C919.733 288.533 892.667 289.6 874.533 279.467C865.867 274.533 854 261.6 849.467 252C837.867 227.6 842.4 201.733 861.6 182.667C877.6 166.667 897.6 160.8 918 166ZM1393.33 168.8C1404.13 171.2 1410.67 175.067 1419.73 184.267C1442.4 207.067 1442.8 242.533 1420.53 266.533C1409.2 278.8 1392.93 285.333 1373.73 285.333H1366.67V225.2V165.067L1375.73 166C1380.67 166.4 1388.53 167.733 1393.33 168.8ZM1091.47 173.6C1091.73 174 1091.73 175.333 1091.2 176.533C1090.67 178 1088.67 178.667 1084.53 178.667C1080 178.667 1077.73 179.467 1074.4 182.533C1070.27 186.267 1070.13 186.667 1069.6 199.067L1069.07 211.867L1076.13 212.267C1082.27 212.667 1083.33 213.067 1083.33 215.333C1083.33 217.6 1082.27 218 1076.4 218.4L1069.33 218.8V252.133V285.333H1066H1062.67V252.133V218.8L1059.07 218.4C1056.4 218.133 1055.33 217.2 1055.33 215.333C1055.33 213.467 1056.4 212.533 1059.07 212.267C1062.67 211.867 1062.67 211.733 1062.67 201.6C1062.8 186.133 1066.53 177.867 1075.33 173.733C1078.93 172.133 1089.87 172 1091.47 173.6ZM1127.87 173.2C1131.07 175.2 1128.53 178.667 1123.73 178.667C1118.13 178.667 1110.93 183.067 1109.33 187.467C1108.53 189.333 1108 195.6 1108 201.333V211.867L1115.07 212.267C1120.93 212.667 1122 213.067 1122 215.333C1122 217.6 1120.93 218 1115.07 218.4L1108 218.8V252.133V285.333H1104.67H1101.33V252.133V218.8L1097.73 218.4C1095.07 218.133 1094 217.2 1094 215.333C1094 213.467 1095.07 212.533 1097.73 212.267L1101.33 211.867V200.667C1101.33 188.533 1102.67 183.733 1107.07 178.8C1112.4 173.067 1123.07 170.133 1127.87 173.2ZM822.267 192.933C821.2 206.667 814.4 226 806.667 237.867C798.667 250.133 784.4 264.8 773.867 271.467C764.8 277.2 747.067 285.733 739.067 288.133C735.867 289.067 733.333 290.133 733.333 290.533C733.333 291.067 735.467 292.533 738.133 294C740.667 295.333 743.867 298.133 745.067 300.267L747.2 304H1227.33C1491.33 304 1721.33 304.4 1738.4 304.933C1769.2 305.733 1769.33 305.733 1769.33 308.667V311.733L1717.07 312.667C1688.27 313.067 1365.2 313.333 999.067 313.067C466.8 312.8 333.067 312.267 331.733 310.933C330.4 309.6 330.533 308.933 332.133 307.333C333.867 305.6 352.667 305.2 475.333 304.667C553.067 304.267 621.6 303.733 627.733 303.333C638.267 302.8 638.933 302.667 644.667 297.6C647.867 294.8 652.533 291.867 654.933 291.2C659.2 289.867 659.2 289.867 648 285.6C630 278.8 622.8 274.133 598.133 252.933C595.2 250.4 590.8 248.533 584.8 247.333C566.133 243.467 552.133 233.867 546.8 221.2C543.2 212.8 544 207.333 550.133 200.267C557.2 192 568.267 186.133 578.667 185.2C583.467 184.8 640.4 184.4 705.2 184.267L823.067 184L822.267 192.933ZM1007.87 206.667C1017.6 208.533 1023.2 211.467 1030 218.267C1038.13 226.4 1041.73 236.4 1041.07 248.667C1040.4 259.467 1037.87 265.6 1030.53 273.867C1022.67 282.8 1013.87 286.667 1001.2 286.667C984.267 286.667 971.6 278.933 964.4 264.267C961.2 257.867 960.667 255.067 960.8 246C960.8 237.2 961.333 234.133 964.267 228.533C969.6 218.267 978.667 210.8 990 207.2C996.667 205.067 999.2 205.067 1007.87 206.667ZM1191.33 210.133C1195.07 211.867 1199.47 214.533 1201.33 216L1204.67 218.533L1180.67 242.933C1148.13 275.867 1150.27 272.8 1157.47 275.867C1170.93 281.733 1182.93 281.067 1193.47 273.867C1200.27 269.333 1207.33 267.733 1206.4 270.933C1206 271.867 1202.13 275.467 1197.6 278.933C1191.73 283.467 1187.33 285.6 1181.73 286.667C1164.13 290.4 1144.4 280.4 1136.93 264C1133.73 256.8 1132.53 242.667 1134.53 235.333C1137.87 222.8 1149.87 210.667 1162.8 206.8C1169.73 204.8 1183.73 206.4 1191.33 210.133ZM1279.33 210.133C1283.07 211.867 1287.47 214.533 1289.33 216L1292.67 218.533L1269.33 242.267C1256.4 255.333 1244.53 267.6 1242.8 269.6L1239.73 273.2L1246.53 276.533C1257.87 282.267 1272.4 280.667 1283.6 272.4C1287.87 269.2 1292.53 268.4 1293.87 270.533C1294.93 272.267 1286.4 279.467 1278.27 283.467C1260 292.8 1235.33 283.867 1225.07 264C1220.67 255.6 1220.67 236.667 1224.93 228.533C1229.07 220.667 1241.6 209.733 1249.07 207.333C1257.6 204.667 1270.67 205.867 1279.33 210.133ZM1553.87 209.333C1556.8 210.8 1561.2 213.467 1563.33 215.2L1567.33 218.4L1541.6 244.533C1527.33 258.8 1516 271.333 1516.27 272.267C1517.2 275.333 1526.67 278.933 1535.2 279.6C1541.73 280.133 1544.8 279.733 1550.27 277.333C1554 275.733 1558.13 273.333 1559.47 271.867C1561.87 269.2 1568.53 268.4 1569.87 270.533C1571.2 272.667 1558.8 282.4 1551.73 284.8C1544 287.333 1528.67 287.467 1523.07 285.067C1505.2 277.333 1494.67 259.733 1496.67 241.2C1498.27 226.8 1509.73 212.933 1524.4 207.733C1532.93 204.667 1545.73 205.333 1553.87 209.333ZM1644.8 209.333C1647.87 210.667 1652.8 213.867 1655.73 216.533L1661.2 221.467L1661.6 217.067C1661.87 213.733 1662.67 212.533 1665.07 212.267L1668 211.867V248.667V285.467L1665.07 285.067C1662.4 284.667 1662 283.733 1661.6 278.267L1661.2 272L1654.93 277.2C1651.47 280.133 1646.4 283.467 1643.73 284.533C1637.87 287.067 1621.87 287.333 1614.67 285.2C1601.33 281.2 1588.93 265.467 1587.2 250.533C1585.07 231.867 1598.13 212.4 1616 207.467C1624.8 204.933 1636.8 205.733 1644.8 209.333ZM1721.07 209.867C1723.07 210.933 1725.73 212.933 1727.07 214.4C1729.6 217.067 1729.6 217.067 1735.6 212.933C1740.67 209.333 1742.8 208.667 1749.33 208.667C1757.73 208.667 1762 210.8 1767.2 217.867C1769.87 221.333 1770 223.733 1770.4 253.467L1770.93 285.333H1767.47H1764V254.267C1764 223.733 1764 223.067 1761.07 220.4C1753.2 213.333 1746.27 212.8 1739.33 218.8L1734.67 222.933V254.133V285.333H1730.67H1726.67V254.133V222.933L1722 218.8C1715.07 212.8 1708.13 213.333 1700.4 220.4C1697.33 223.067 1697.33 223.733 1697.33 254.267V285.333H1694H1690.67V248.667V212L1695.07 211.867C1697.33 211.867 1701.47 210.933 1704 210C1710.13 207.6 1716.67 207.6 1721.07 209.867ZM1486.4 213.6C1486.67 215.067 1485.07 216.8 1481.73 218.533C1475.73 221.6 1469.2 228.267 1465.87 234.667C1464 238.4 1463.47 243.733 1462.93 262.267L1462.27 285.333H1459.2H1456V248.533V211.867L1459.07 212.267C1461.47 212.533 1462.13 213.6 1462.4 218.4L1462.8 224L1469.07 218.8C1478.53 210.8 1485.47 208.8 1486.4 213.6Z" fill="black"/>
<path d="M1373.33 225.467V278.667H1377.73C1380.13 278.667 1385.6 277.733 1390 276.667C1406.93 272.267 1418.27 262.667 1425.73 246.933C1429.33 239.067 1429.87 236.667 1429.87 226.667C1429.73 196.267 1411.33 176.8 1379.07 172.933L1373.33 172.267V225.467Z" fill="black"/>
<path d="M565.867 192.8C563.6 193.867 559.733 196.933 557.2 199.467C553.067 203.733 552.667 204.8 552.667 212.667C552.667 219.867 553.2 221.867 556.667 226.8C558.933 229.867 563.333 233.733 566.933 235.6C573.067 238.8 588.933 241.6 587.733 239.2C577.6 218 572 202.533 572 194.933C572 191.067 570.533 190.533 565.867 192.8Z" fill="black"/>
<path d="M805.6 205.333C804.667 225.867 789.067 248.667 768 260.267C758.8 265.333 757.467 267.6 765.733 264.4C779.867 258.8 794.533 246.133 800.4 234.267C804.533 225.867 807.067 213.467 806.267 205.333L805.733 199.333L805.6 205.333Z" fill="black"/>
<path d="M994.533 213.067C988.667 213.733 977.067 221.6 972.667 227.733C969.067 232.933 968.667 234.8 968.267 245.467C967.733 255.733 968.133 257.867 970.533 261.867C977.2 272.667 989.6 279.867 1001.07 280C1019.47 280 1034.8 264 1034.67 245.067C1034.53 234.667 1026.4 222 1016.93 217.2C1011.33 214.267 1000.67 212.4 994.533 213.067Z" fill="black"/>
<path d="M1164.53 214.4C1155.33 217.6 1151.33 220.4 1146.67 226.933C1139.33 236.933 1138.27 249.333 1143.6 261.333L1146 266.8L1170 242.8L1193.87 218.8L1188 216.133C1178.67 212.133 1172.27 211.733 1164.53 214.4Z" fill="black"/>
<path d="M1252.4 214.4C1233.6 221.067 1224.4 238 1229.87 256.133C1233.73 269.067 1232.27 269.733 1258 244C1270.8 231.2 1281.33 220.267 1281.33 219.6C1281.33 218 1270.8 213.733 1264.67 212.8C1261.2 212.267 1256.93 212.8 1252.4 214.4Z" fill="black"/>
<path d="M1523.33 215.867C1508 222.933 1499.73 241.467 1505.07 256.667C1506.53 260.933 1508.27 263.467 1509.73 263.733C1511.47 264.133 1519.07 257.467 1534.8 241.867C1547.2 229.467 1557.33 219.067 1557.33 218.667C1557.33 218.133 1554.13 216.8 1550.27 215.6C1540.93 212.667 1530 212.8 1523.33 215.867Z" fill="black"/>
<path d="M1620.67 213.2C1618.53 213.733 1614.8 215.2 1612.53 216.4C1607.6 218.933 1597.73 229.467 1596 234.133C1594.27 238.533 1594.27 251.333 1596.13 257.733C1598 264.667 1605.87 273.067 1614 276.8C1646.13 291.867 1676.53 251.333 1653.07 224.8C1645.07 215.6 1630.93 210.533 1620.67 213.2Z" fill="black"/>
</g>
<defs>
<clipPath id="clip0_45_380">
<rect width="2133.33" height="468" fill="white"/>
</clipPath>
</defs>
</svg>
