<svg width="16" height="17" viewBox="0 0 16 17" fill="none" xmlns="http://www.w3.org/2000/svg">
<path d="M12.8189 0.857264C13.6158 0.857264 14.2955 1.14186 14.858 1.71106C15.4272 2.27356 15.7118 2.95325 15.7118 3.75012V13.393C15.7118 14.1899 15.4272 14.8695 14.858 15.432C14.2955 16.0012 13.6158 16.2858 12.8189 16.2858H10.9305V10.3093H12.9294L13.2307 7.97892H10.9305V6.49231C10.9305 6.11731 11.0075 5.83606 11.1616 5.64856C11.3223 5.46106 11.6303 5.36731 12.0857 5.36731L13.3111 5.35726V3.27802C12.8892 3.21776 12.2932 3.18762 11.5232 3.18762C10.6124 3.18762 9.88253 3.45548 9.33343 3.99119C8.79102 4.52691 8.51981 5.2836 8.51981 6.26128V7.97892H6.51088V10.3093H8.51981V16.2858H3.17606C2.37919 16.2858 1.69615 16.0012 1.12695 15.432C0.564453 14.8695 0.283203 14.1899 0.283203 13.393V3.75012C0.283203 2.95325 0.564453 2.27356 1.12695 1.71106C1.69615 1.14186 2.37919 0.857264 3.17606 0.857264H12.8189Z" fill="white"/>
</svg>
