<svg width="16" height="16" viewBox="0 0 16 16" fill="none" xmlns="http://www.w3.org/2000/svg">
<path d="M9.81557 9.72304C10.3178 9.2208 10.5689 8.61478 10.5689 7.90496C10.5689 7.19513 10.3178 6.58911 9.81557 6.08687C9.31334 5.58464 8.70731 5.33353 7.99749 5.33353C7.28767 5.33353 6.68164 5.58464 6.17941 6.08687C5.67718 6.58911 5.42606 7.19513 5.42606 7.90496C5.42606 8.61478 5.67718 9.2208 6.17941 9.72304C6.68164 10.2253 7.28767 10.4764 7.99749 10.4764C8.70731 10.4764 9.31334 10.2253 9.81557 9.72304ZM10.7999 5.1025C11.57 5.87259 11.9551 6.80674 11.9551 7.90496C11.9551 9.00317 11.57 9.93732 10.7999 10.7074C10.0299 11.4775 9.0957 11.8625 7.99749 11.8625C6.89928 11.8625 5.96512 11.4775 5.19503 10.7074C4.42494 9.93732 4.0399 9.00317 4.0399 7.90496C4.0399 6.80674 4.42494 5.87259 5.19503 5.1025C5.96512 4.33241 6.89928 3.94737 7.99749 3.94737C9.0957 3.94737 10.0299 4.33241 10.7999 5.1025ZM12.7687 3.13375C12.9495 3.31455 13.0399 3.53219 13.0399 3.78665C13.0399 4.04112 12.9495 4.25875 12.7687 4.43955C12.5879 4.62036 12.3703 4.71076 12.1158 4.71076C11.8613 4.71076 11.6437 4.62036 11.4629 4.43955C11.2821 4.25875 11.1917 4.04112 11.1917 3.78665C11.1917 3.53219 11.2821 3.31455 11.4629 3.13375C11.6437 2.95295 11.8613 2.86254 12.1158 2.86254C12.3703 2.86254 12.5879 2.95295 12.7687 3.13375ZM8.76088 1.57683C8.29883 1.57683 8.04436 1.57683 7.99749 1.57683C7.95061 1.57683 7.6928 1.57683 7.22405 1.57683C6.762 1.57013 6.41044 1.57013 6.16936 1.57683C5.92829 1.57683 5.60352 1.58687 5.19503 1.60696C4.79325 1.62036 4.44838 1.65384 4.16044 1.70741C3.87919 1.75428 3.64146 1.81455 3.44727 1.88821C3.11244 2.02214 2.8178 2.21634 2.56334 2.4708C2.30887 2.72527 2.11468 3.01991 1.98075 3.35473C1.90709 3.54893 1.84347 3.79 1.7899 4.07795C1.74302 4.3592 1.70954 4.70406 1.68945 5.11254C1.67606 5.51433 1.66602 5.83576 1.65932 6.07683C1.65932 6.3179 1.65932 6.67281 1.65932 7.14156C1.66602 7.60362 1.66936 7.85808 1.66936 7.90496C1.66936 7.95183 1.66602 8.20964 1.65932 8.67839C1.65932 9.14045 1.65932 9.49201 1.65932 9.73308C1.66602 9.97415 1.67606 10.2989 1.68945 10.7074C1.70954 11.1092 1.74302 11.4541 1.7899 11.742C1.84347 12.0233 1.90709 12.261 1.98075 12.4552C2.11468 12.79 2.30887 13.0846 2.56334 13.3391C2.8178 13.5936 3.11244 13.7878 3.44727 13.9217C3.64146 13.9954 3.87919 14.059 4.16044 14.1125C4.44838 14.1594 4.79325 14.1929 5.19503 14.213C5.60352 14.2264 5.92829 14.2364 6.16936 14.2431C6.41044 14.2431 6.762 14.2431 7.22405 14.2431C7.6928 14.2364 7.95061 14.2331 7.99749 14.2331C8.04436 14.2331 8.29883 14.2364 8.76088 14.2431C9.22963 14.2431 9.58454 14.2431 9.82561 14.2431C10.0667 14.2364 10.3881 14.2264 10.7899 14.213C11.1984 14.1929 11.5432 14.1594 11.8245 14.1125C12.1124 14.059 12.3535 13.9954 12.5477 13.9217C12.8825 13.7878 13.1772 13.5936 13.4316 13.3391C13.6861 13.0846 13.8803 12.79 14.0142 12.4552C14.0879 12.261 14.1482 12.0233 14.195 11.742C14.2486 11.4541 14.2821 11.1092 14.2955 10.7074C14.3156 10.2989 14.3256 9.97415 14.3256 9.73308C14.3323 9.49201 14.3323 9.14045 14.3256 8.67839C14.3256 8.20964 14.3256 7.95183 14.3256 7.90496C14.3256 7.85808 14.3256 7.60362 14.3256 7.14156C14.3323 6.67281 14.3323 6.3179 14.3256 6.07683C14.3256 5.83576 14.3156 5.51433 14.2955 5.11254C14.2821 4.70406 14.2486 4.3592 14.195 4.07795C14.1482 3.79 14.0879 3.54893 14.0142 3.35473C13.8803 3.01991 13.6861 2.72527 13.4316 2.4708C13.1772 2.21634 12.8825 2.02214 12.5477 1.88821C12.3535 1.81455 12.1124 1.75428 11.8245 1.70741C11.5432 1.65384 11.1984 1.62036 10.7899 1.60696C10.3881 1.58687 10.0667 1.57683 9.82561 1.57683C9.58454 1.57013 9.22963 1.57013 8.76088 1.57683ZM15.6616 4.7208C15.695 5.31009 15.7118 6.37147 15.7118 7.90496C15.7118 9.43844 15.695 10.4998 15.6616 11.0891C15.5946 12.482 15.1794 13.5601 14.416 14.3235C13.6526 15.0869 12.5745 15.5021 11.1816 15.569C10.5924 15.6025 9.53097 15.6192 7.99749 15.6192C6.46401 15.6192 5.40262 15.6025 4.81334 15.569C3.42048 15.5021 2.34235 15.0869 1.57896 14.3235C0.815569 13.5601 0.400391 12.482 0.333426 11.0891C0.299944 10.4998 0.283203 9.43844 0.283203 7.90496C0.283203 6.37147 0.299944 5.31009 0.333426 4.7208C0.400391 3.32795 0.815569 2.24982 1.57896 1.48643C2.34235 0.723035 3.42048 0.307856 4.81334 0.240893C5.40262 0.20741 6.46401 0.190669 7.99749 0.190669C9.53097 0.190669 10.5924 0.20741 11.1816 0.240893C12.5745 0.307856 13.6526 0.723035 14.416 1.48643C15.1794 2.24982 15.5946 3.32795 15.6616 4.7208Z" fill="white"/>
</svg>
